<svg width="176" height="107" viewBox="0 0 176 107" fill="none" xmlns="http://www.w3.org/2000/svg">
<path d="M117.604 0C120.392 0 122.651 2.42014 122.651 5.40527V23.165L126.977 27.0254H170.232C173.418 27.0254 176 29.7907 176 33.2021V54.8232C176 58.2346 173.418 61 170.232 61H111C107.134 61 104 64.134 104 68V70C104 73.5301 106.613 76.448 110.011 76.9287C109.985 76.9523 109.959 76.9767 109.933 77H126C129.314 77 132 79.6863 132 83V101C132 104.314 129.314 107 126 107H109C105.686 107 103 104.314 103 101V83L100.207 80.207C100.147 80.1468 100.1 80.076 100.065 80H12C5.37258 80 1.93283e-07 74.6274 0 68V56C0 51.0781 2.96438 46.8511 7.2041 45H104C106.209 45 108 43.2091 108 41V38C108 35.7909 106.209 34 104 34H101.768L101.744 33.9746H88.0469C85.2598 33.9746 83 31.5545 83 28.5693V5.40527C83 2.42014 85.2598 0 88.0469 0H117.604Z" fill="#8484841a" fill-opacity="1"/>
</svg>
