<svg width="24" height="23" viewBox="0 0 24 23" fill="none" xmlns="http://www.w3.org/2000/svg">
<path d="M21 3H6.42188L6.28125 2.4375C6.125 1.71875 5.77344 1.13281 5.22656 0.679688C4.67969 0.226562 4.03125 0 3.28125 0H0.984375C0.703125 0 0.46875 0.09375 0.28125 0.28125C0.09375 0.46875 0 0.71875 0 1.03125C0 1.3125 0.09375 1.54688 0.28125 1.73438C0.46875 1.92188 0.703125 2.01562 0.984375 2.01562H3.28125C3.875 2.01562 4.21875 2.28125 4.3125 2.8125L6.60938 14.8125C6.79688 15.4688 7.16406 16 7.71094 16.4062C8.25781 16.8125 8.85938 17.0156 9.51562 17.0156H18.9844C19.2969 17.0156 19.5469 16.9219 19.7344 16.7344C19.9219 16.5469 20.0156 16.3125 20.0156 16.0312C20.0156 15.3438 19.6719 15 18.9844 15H9.51562C9.07812 15 8.76562 14.8125 8.57812 14.4375L8.48438 14.0156H18.5156C19.1406 14.0156 19.7109 13.8281 20.2266 13.4531C20.7422 13.0781 21.0938 12.5938 21.2812 12L24 6.23438V6C24 5.15625 23.7109 4.44531 23.1328 3.86719C22.5547 3.28906 21.8438 3 21 3ZM12 20.0156C12 20.5781 11.8047 21.0547 11.4141 21.4453C11.0234 21.8359 10.5469 22.0312 9.98438 22.0312C9.45312 22.0312 8.99219 21.8359 8.60156 21.4453C8.21094 21.0547 8.01562 20.5781 8.01562 20.0156C8.01562 19.4531 8.21094 18.9766 8.60156 18.5859C8.99219 18.1953 9.45312 18 9.98438 18C10.5469 18 11.0234 18.1953 11.4141 18.5859C11.8047 18.9766 12 19.4531 12 20.0156ZM20.0156 20.0156C20.0156 20.5781 19.8203 21.0547 19.4297 21.4453C19.0391 21.8359 18.5625 22.0312 18 22.0312C17.4375 22.0312 16.9609 21.8359 16.5703 21.4453C16.1797 21.0547 15.9844 20.5781 15.9844 20.0156C15.9844 19.4531 16.1797 18.9766 16.5703 18.5859C16.9609 18.1953 17.4375 18 18 18C18.5625 18 19.0391 18.1953 19.4297 18.5859C19.8203 18.9766 20.0156 19.4531 20.0156 20.0156Z" fill="white"/>
</svg>
