<svg width="24" height="23" viewBox="0 0 24 23" fill="none" xmlns="http://www.w3.org/2000/svg">
<path d="M21 3.23438H6.42188L6.28125 2.67188C6.125 1.95313 5.77344 1.36719 5.22656 0.914062C4.67969 0.460937 4.03125 0.234375 3.28125 0.234375H0.984375C0.703125 0.234375 0.46875 0.328125 0.28125 0.515625C0.09375 0.703125 0 0.953125 0 1.26562C0 1.54688 0.09375 1.78125 0.28125 1.96875C0.46875 2.15625 0.703125 2.25 0.984375 2.25H3.28125C3.875 2.25 4.21875 2.51563 4.3125 3.04688L6.60938 15.0469C6.79688 15.7031 7.16406 16.2344 7.71094 16.6406C8.25781 17.0469 8.85938 17.25 9.51562 17.25H18.9844C19.2969 17.25 19.5469 17.1562 19.7344 16.9688C19.9219 16.7812 20.0156 16.5469 20.0156 16.2656C20.0156 15.5781 19.6719 15.2344 18.9844 15.2344H9.51562C9.07813 15.2344 8.76562 15.0469 8.57812 14.6719L8.48438 14.25H18.5156C19.1406 14.25 19.7109 14.0625 20.2266 13.6875C20.7422 13.3125 21.0938 12.8281 21.2812 12.2344L24 6.46875V6.23438C24 5.39062 23.7109 4.67969 23.1328 4.10156C22.5547 3.52344 21.8438 3.23438 21 3.23438ZM19.5 11.4375V11.5312C19.4062 12 19.0781 12.2344 18.5156 12.2344H8.10938L6.79688 5.25H21C21.5625 5.25 21.8906 5.51563 21.9844 6.04688L19.5 11.4375ZM12 20.25C12 20.8125 11.8047 21.2891 11.4141 21.6797C11.0234 22.0703 10.5469 22.2656 9.98438 22.2656C9.45313 22.2656 8.99219 22.0703 8.60156 21.6797C8.21094 21.2891 8.01562 20.8125 8.01562 20.25C8.01562 19.6875 8.21094 19.2109 8.60156 18.8203C8.99219 18.4297 9.45313 18.2344 9.98438 18.2344C10.5469 18.2344 11.0234 18.4297 11.4141 18.8203C11.8047 19.2109 12 19.6875 12 20.25ZM20.0156 20.25C20.0156 20.8125 19.8203 21.2891 19.4297 21.6797C19.0391 22.0703 18.5625 22.2656 18 22.2656C17.4375 22.2656 16.9609 22.0703 16.5703 21.6797C16.1797 21.2891 15.9844 20.8125 15.9844 20.25C15.9844 19.6875 16.1797 19.2109 16.5703 18.8203C16.9609 18.4297 17.4375 18.2344 18 18.2344C18.5625 18.2344 19.0391 18.4297 19.4297 18.8203C19.8203 19.2109 20.0156 19.6875 20.0156 20.25Z" fill="white"/>
</svg>
