<svg width="24" height="20" viewBox="0 0 24 20" fill="none" xmlns="http://www.w3.org/2000/svg">
<path fill-rule="evenodd" clip-rule="evenodd" d="M0.699219 4.245V15.45C0.699219 16.125 1.14922 16.71 1.82422 16.905L11.5742 19.5C11.8142 19.575 12.0842 19.575 12.3242 19.5L22.0742 16.905C22.7492 16.71 23.1992 16.125 23.1992 15.45V4.245C23.1992 3.57 22.7492 2.985 22.0742 2.79L12.3242 0.180001C12.0762 0.134997 11.8222 0.134997 11.5742 0.180001L1.82422 2.79C1.14922 2.985 0.699219 3.57 0.699219 4.245ZM2.19922 3.84L5.94922 2.835L15.6992 5.43L11.9492 6.435L2.19922 3.84ZM15.6992 6.93V10.59L18.6992 9.795V6.135L15.6992 6.93ZM18.6992 4.635L8.94922 2.04L11.9492 1.245L21.6992 3.84L18.6992 4.635Z" fill="white"/>
</svg>
