<svg width="21" height="17" viewBox="0 0 21 17" fill="none" xmlns="http://www.w3.org/2000/svg">
<path fill-rule="evenodd" clip-rule="evenodd" d="M4 3.37867V12.6151C4 13.1716 4.34 13.6538 4.85 13.8145L12.2167 15.9536C12.398 16.0155 12.602 16.0155 12.7833 15.9536L20.15 13.8145C20.66 13.6538 21 13.1716 21 12.6151V3.37867C21 2.82226 20.66 2.34003 20.15 2.17929L12.7833 0.0278235C12.596 -0.0092745 12.404 -0.0092745 12.2167 0.0278235L4.85 2.17929C4.34 2.34003 4 2.82226 4 3.37867ZM11.9333 14.6182L5.13333 12.6522V4.2813L11.9333 6.27203V14.6182ZM5.13333 3.04482L7.96667 2.21639L15.3333 4.35549L12.5 5.18393L5.13333 3.04482ZM19.8667 12.6522L13.0667 14.6182V6.27203L15.3333 5.59197V8.60897L17.6 7.95363V4.93663L19.8667 4.2813V12.6522ZM17.6 3.70016L10.2333 1.56105L12.5 0.905721L19.8667 3.04482L17.6 3.70016Z" fill="#D09A06"/>
<mask id="path-2-inside-1_288_19" fill="white">
<path d="M6.88485 13.4292L6.54038 12.3141C6.64133 12.2322 6.73638 12.1444 6.82552 12.0508L8.02981 12.369C8.15612 12.1965 8.26802 12.0154 8.36454 11.8272L7.46796 11.0246C7.5109 10.9066 7.54765 10.7871 7.57422 10.663L8.78294 10.3833C8.79179 10.2801 8.80065 10.1765 8.80065 10.0708C8.80065 9.96519 8.79179 9.862 8.78294 9.7588L7.57422 9.47871C7.54736 9.35616 7.51186 9.23537 7.46796 9.11712L8.36498 8.3145C8.26669 8.12613 8.15688 7.9439 8.03025 7.77273L6.82596 8.09091C6.73706 7.99736 6.64167 7.90927 6.54038 7.82719L6.88485 6.71253C6.69823 6.59583 6.50226 6.49247 6.29864 6.40336L5.43084 7.2326C5.30298 7.19199 5.17238 7.15915 5.03989 7.13432L4.73748 6.01638C4.62547 6.00819 4.51389 6 4.39966 6C4.28543 6 4.17386 6.00819 4.06228 6.01638L3.75944 7.13432C3.62661 7.15889 3.49644 7.19287 3.36893 7.2326L2.50068 6.40418C2.29702 6.4955 2.10043 6.59664 1.91536 6.71417L2.25982 7.82883C2.15888 7.91073 2.06398 7.99809 1.97513 8.09091L0.770394 7.77355C0.644065 7.94613 0.532166 8.12738 0.435671 8.31572L1.33269 9.11835C1.29019 9.23628 1.253 9.35586 1.22643 9.47993L0.0177102 9.76003C0.00885509 9.86323 0 9.96683 0 10.0721C0 10.1773 0.00885509 10.2809 0.0177102 10.3845L1.22643 10.6642C1.253 10.7879 1.29019 10.9079 1.33269 11.0258L0.435671 11.8284C0.533078 12.0168 0.642881 12.199 0.769952 12.3702L1.97425 12.0508C2.06309 12.1447 2.15814 12.2326 2.25938 12.3145L1.91492 13.4296C2.09999 13.5467 2.29702 13.6478 2.50068 13.7387L3.36848 12.9091C3.49555 12.9488 3.62528 12.9828 3.75899 13.0074L4.06184 14.1253C4.17341 14.1335 4.28543 14.1417 4.39966 14.1417C4.51389 14.1417 4.62547 14.1335 4.73704 14.1253L5.03944 13.0074C5.17315 12.9828 5.30332 12.9484 5.4304 12.9091L6.2982 13.7387C6.50186 13.647 6.69845 13.5463 6.88352 13.4287L6.88485 13.4292ZM4.4001 11.4636C4.19874 11.4691 3.99822 11.4372 3.81042 11.3698C3.62263 11.3024 3.45137 11.2008 3.3068 11.071C3.16223 10.9413 3.04729 10.786 2.96879 10.6144C2.8903 10.4428 2.84983 10.2584 2.8498 10.0721C2.84977 9.88576 2.89018 9.70133 2.96862 9.52971C3.04707 9.3581 3.16196 9.20279 3.30648 9.073C3.45101 8.9432 3.62223 8.84155 3.81001 8.77408C3.99779 8.7066 4.1983 8.67467 4.39966 8.68018C4.791 8.69088 5.16243 8.84217 5.43517 9.10195C5.7079 9.36173 5.86048 9.70957 5.86054 10.0717C5.8606 10.4338 5.70813 10.7816 5.43547 11.0415C5.16282 11.3014 4.79144 11.4527 4.4001 11.4636ZM11.2593 14.3726C11.2667 14.1431 11.2322 13.9139 11.1574 13.6949L11.7082 12.9689C11.625 12.8256 11.5311 12.6896 11.4249 12.5659L10.4849 12.7482C10.2957 12.6001 10.0809 12.4824 9.84954 12.4001L9.57946 11.5483C9.40782 11.5204 9.23394 11.5058 9.05966 11.5049L8.62886 12.2977C8.50489 12.3198 8.3818 12.3501 8.26049 12.3931C8.1467 12.4333 8.04044 12.4832 7.93861 12.5377L7.05044 12.2019C6.92007 12.3086 6.79966 12.4253 6.69048 12.5508L7.09161 13.3567C6.97611 13.5596 6.89829 13.779 6.86138 14.0057L6.02457 14.4398C6.03372 14.5987 6.05793 14.7577 6.09718 14.9169L7.02874 15.1298C7.13058 15.344 7.26783 15.536 7.43431 15.6998L7.27846 16.5753C7.42073 16.669 7.57023 16.7509 7.72697 16.821L8.48674 16.2805C8.72405 16.3378 8.97244 16.3604 9.2226 16.3419L9.86548 17C9.95403 16.9767 10.0426 16.9517 10.1294 16.921C10.2054 16.8937 10.28 16.8632 10.3529 16.8296L10.3698 15.9435C10.5712 15.8043 10.743 15.6376 10.8798 15.4496L11.8362 15.3948C11.9039 15.2473 11.9602 15.095 12 14.9382L11.2606 14.3731L11.2593 14.3726ZM9.41608 15.1941C9.28947 15.2387 9.15461 15.2598 9.01919 15.2561C8.88378 15.2525 8.75046 15.2243 8.62685 15.173C8.50325 15.1217 8.39177 15.0484 8.29878 14.9573C8.2058 14.8662 8.13314 14.759 8.08494 14.6419C8.03673 14.5248 8.01394 14.4001 8.01786 14.2748C8.02178 14.1496 8.05233 14.0263 8.10777 13.9119C8.16322 13.7976 8.24246 13.6945 8.34099 13.6085C8.43951 13.5225 8.55538 13.4553 8.68199 13.4107C8.9378 13.3207 9.22181 13.3283 9.47153 13.432C9.72125 13.5356 9.91623 13.7268 10.0136 13.9633C10.1109 14.1999 10.1027 14.4626 9.99061 14.6936C9.87856 14.9246 9.67189 15.1049 9.41608 15.1949V15.1941Z"/>
</mask>
<path d="M6.88485 13.4292L6.54038 12.3141C6.64133 12.2322 6.73638 12.1444 6.82552 12.0508L8.02981 12.369C8.15612 12.1965 8.26802 12.0154 8.36454 11.8272L7.46796 11.0246C7.5109 10.9066 7.54765 10.7871 7.57422 10.663L8.78294 10.3833C8.79179 10.2801 8.80065 10.1765 8.80065 10.0708C8.80065 9.96519 8.79179 9.862 8.78294 9.7588L7.57422 9.47871C7.54736 9.35616 7.51186 9.23537 7.46796 9.11712L8.36498 8.3145C8.26669 8.12613 8.15688 7.9439 8.03025 7.77273L6.82596 8.09091C6.73706 7.99736 6.64167 7.90927 6.54038 7.82719L6.88485 6.71253C6.69823 6.59583 6.50226 6.49247 6.29864 6.40336L5.43084 7.2326C5.30298 7.19199 5.17238 7.15915 5.03989 7.13432L4.73748 6.01638C4.62547 6.00819 4.51389 6 4.39966 6C4.28543 6 4.17386 6.00819 4.06228 6.01638L3.75944 7.13432C3.62661 7.15889 3.49644 7.19287 3.36893 7.2326L2.50068 6.40418C2.29702 6.4955 2.10043 6.59664 1.91536 6.71417L2.25982 7.82883C2.15888 7.91073 2.06398 7.99809 1.97513 8.09091L0.770394 7.77355C0.644065 7.94613 0.532166 8.12738 0.435671 8.31572L1.33269 9.11835C1.29019 9.23628 1.253 9.35586 1.22643 9.47993L0.0177102 9.76003C0.00885509 9.86323 0 9.96683 0 10.0721C0 10.1773 0.00885509 10.2809 0.0177102 10.3845L1.22643 10.6642C1.253 10.7879 1.29019 10.9079 1.33269 11.0258L0.435671 11.8284C0.533078 12.0168 0.642881 12.199 0.769952 12.3702L1.97425 12.0508C2.06309 12.1447 2.15814 12.2326 2.25938 12.3145L1.91492 13.4296C2.09999 13.5467 2.29702 13.6478 2.50068 13.7387L3.36848 12.9091C3.49555 12.9488 3.62528 12.9828 3.75899 13.0074L4.06184 14.1253C4.17341 14.1335 4.28543 14.1417 4.39966 14.1417C4.51389 14.1417 4.62547 14.1335 4.73704 14.1253L5.03944 13.0074C5.17315 12.9828 5.30332 12.9484 5.4304 12.9091L6.2982 13.7387C6.50186 13.647 6.69845 13.5463 6.88352 13.4287L6.88485 13.4292ZM4.4001 11.4636C4.19874 11.4691 3.99822 11.4372 3.81042 11.3698C3.62263 11.3024 3.45137 11.2008 3.3068 11.071C3.16223 10.9413 3.04729 10.786 2.96879 10.6144C2.8903 10.4428 2.84983 10.2584 2.8498 10.0721C2.84977 9.88576 2.89018 9.70133 2.96862 9.52971C3.04707 9.3581 3.16196 9.20279 3.30648 9.073C3.45101 8.9432 3.62223 8.84155 3.81001 8.77408C3.99779 8.7066 4.1983 8.67467 4.39966 8.68018C4.791 8.69088 5.16243 8.84217 5.43517 9.10195C5.7079 9.36173 5.86048 9.70957 5.86054 10.0717C5.8606 10.4338 5.70813 10.7816 5.43547 11.0415C5.16282 11.3014 4.79144 11.4527 4.4001 11.4636ZM11.2593 14.3726C11.2667 14.1431 11.2322 13.9139 11.1574 13.6949L11.7082 12.9689C11.625 12.8256 11.5311 12.6896 11.4249 12.5659L10.4849 12.7482C10.2957 12.6001 10.0809 12.4824 9.84954 12.4001L9.57946 11.5483C9.40782 11.5204 9.23394 11.5058 9.05966 11.5049L8.62886 12.2977C8.50489 12.3198 8.3818 12.3501 8.26049 12.3931C8.1467 12.4333 8.04044 12.4832 7.93861 12.5377L7.05044 12.2019C6.92007 12.3086 6.79966 12.4253 6.69048 12.5508L7.09161 13.3567C6.97611 13.5596 6.89829 13.779 6.86138 14.0057L6.02457 14.4398C6.03372 14.5987 6.05793 14.7577 6.09718 14.9169L7.02874 15.1298C7.13058 15.344 7.26783 15.536 7.43431 15.6998L7.27846 16.5753C7.42073 16.669 7.57023 16.7509 7.72697 16.821L8.48674 16.2805C8.72405 16.3378 8.97244 16.3604 9.2226 16.3419L9.86548 17C9.95403 16.9767 10.0426 16.9517 10.1294 16.921C10.2054 16.8937 10.28 16.8632 10.3529 16.8296L10.3698 15.9435C10.5712 15.8043 10.743 15.6376 10.8798 15.4496L11.8362 15.3948C11.9039 15.2473 11.9602 15.095 12 14.9382L11.2606 14.3731L11.2593 14.3726ZM9.41608 15.1941C9.28947 15.2387 9.15461 15.2598 9.01919 15.2561C8.88378 15.2525 8.75046 15.2243 8.62685 15.173C8.50325 15.1217 8.39177 15.0484 8.29878 14.9573C8.2058 14.8662 8.13314 14.759 8.08494 14.6419C8.03673 14.5248 8.01394 14.4001 8.01786 14.2748C8.02178 14.1496 8.05233 14.0263 8.10777 13.9119C8.16322 13.7976 8.24246 13.6945 8.34099 13.6085C8.43951 13.5225 8.55538 13.4553 8.68199 13.4107C8.9378 13.3207 9.22181 13.3283 9.47153 13.432C9.72125 13.5356 9.91623 13.7268 10.0136 13.9633C10.1109 14.1999 10.1027 14.4626 9.99061 14.6936C9.87856 14.9246 9.67189 15.1049 9.41608 15.1949V15.1941Z" fill="#FBBE17" stroke="#B96C00" stroke-width="0.2" mask="url(#path-2-inside-1_288_19)"/>
</svg>
