<svg width="21" height="16" viewBox="0 0 21 16" fill="none" xmlns="http://www.w3.org/2000/svg">
<path fill-rule="evenodd" clip-rule="evenodd" d="M4 3.37867V12.6151C4 13.1716 4.34 13.6538 4.85 13.8145L12.2167 15.9536C12.398 16.0155 12.602 16.0155 12.7833 15.9536L20.15 13.8145C20.66 13.6538 21 13.1716 21 12.6151V3.37867C21 2.82226 20.66 2.34003 20.15 2.17929L12.7833 0.0278235C12.596 -0.0092745 12.404 -0.0092745 12.2167 0.0278235L4.85 2.17929C4.34 2.34003 4 2.82226 4 3.37867ZM11.9333 14.6182L5.13333 12.6522V4.2813L11.9333 6.27203V14.6182ZM5.13333 3.04482L7.96667 2.21639L15.3333 4.35549L12.5 5.18393L5.13333 3.04482ZM19.8667 12.6522L13.0667 14.6182V6.27203L15.3333 5.59197V8.60897L17.6 7.95363V4.93663L19.8667 4.2813V12.6522ZM17.6 3.70016L10.2333 1.56105L12.5 0.905721L19.8667 3.04482L17.6 3.70016Z" fill="#0A9403"/>
<path d="M15 4L5.375 14L1 9.45455" stroke="#81FF62" stroke-width="2" stroke-linecap="round" stroke-linejoin="round"/>
</svg>
