<svg width="21" height="16" viewBox="0 0 21 16" fill="none" xmlns="http://www.w3.org/2000/svg">
<path fill-rule="evenodd" clip-rule="evenodd" d="M5 2.95634V11.0383C5 11.5251 5.32 11.9471 5.8 12.0877L12.7333 13.9594C12.904 14.0135 13.096 14.0135 13.2667 13.9594L20.2 12.0877C20.68 11.9471 21 11.5251 21 11.0383V2.95634C21 2.46948 20.68 2.04753 20.2 1.90688L13.2667 0.0243456C13.0903 -0.00811519 12.9097 -0.00811519 12.7333 0.0243456L5.8 1.90688C5.32 2.04753 5 2.46948 5 2.95634ZM12.4667 12.791L6.06667 11.0707V3.74614L12.4667 5.48802V12.791ZM6.06667 2.66422L8.73333 1.93934L15.6667 3.81105L13 4.53594L6.06667 2.66422ZM19.9333 11.0707L13.5333 12.791V5.48802L15.6667 4.89297V7.53285L17.8 6.95943V4.31955L19.9333 3.74614V11.0707ZM17.8 3.23764L10.8667 1.36592L13 0.792506L19.9333 2.66422L17.8 3.23764Z" fill="#A90000" fill-opacity="0.96"/>
<path d="M1.64011 5.26998L5.5 9.1297L9.33989 5.28998C9.42471 5.1997 9.52688 5.12749 9.64029 5.07766C9.7537 5.02783 9.876 5.00141 9.99987 5C10.2651 5 10.5194 5.10535 10.707 5.29287C10.8945 5.4804 10.9998 5.73473 10.9998 5.99993C11.0022 6.12252 10.9794 6.2443 10.933 6.35778C10.8866 6.47127 10.8174 6.57407 10.7298 6.65988L6.83996 10.4996L10.7298 14.3893C10.8947 14.5506 10.9913 14.7689 10.9998 14.9993C10.9998 15.2645 10.8945 15.5188 10.707 15.7063C10.5194 15.8939 10.2651 15.9992 9.99987 15.9992C9.87243 16.0045 9.74528 15.9832 9.6265 15.9367C9.50771 15.8903 9.3999 15.8196 9.30989 15.7292L5.5 11.8695L1.65011 15.7192C1.56562 15.8065 1.46468 15.8762 1.35312 15.9242C1.24157 15.9723 1.12159 15.9978 1.00013 15.9992C0.734924 15.9992 0.480578 15.8939 0.293047 15.7063C0.105516 15.5188 0.000162702 15.2645 0.000162702 14.9993C-0.00216872 14.8767 0.0205775 14.7549 0.0670057 14.6414C0.113434 14.5279 0.182564 14.4251 0.270155 14.3393L4.16004 10.4996L0.270155 6.60988C0.105345 6.44865 0.00870207 6.23032 0.000162702 5.99993C0.000162702 5.73473 0.105516 5.4804 0.293047 5.29287C0.480578 5.10535 0.734924 5 1.00013 5C1.24013 5.003 1.47012 5.09999 1.64011 5.26998Z" fill="#FF0606"/>
</svg>
