<svg  viewBox="0 0 74 21" fill="none" xmlns="http://www.w3.org/2000/svg">
<path d="M42.7188 0.65625C43.4479 0.65625 44.1562 0.78125 44.8438 1.03125C45.5521 1.28125 46.2188 1.65625 46.8438 2.15625C47.4896 2.63542 48.0521 3.28125 48.5312 4.09375C49.0312 4.90625 49.2812 5.875 49.2812 7V18.2812C49.1562 19.5312 48.4688 20.2083 47.2188 20.3125C46.6354 20.3125 46.125 20.125 45.6875 19.75C45.2708 19.3542 45.0625 18.8646 45.0625 18.2812V7.25C45.0625 6.75 44.9688 6.33333 44.7812 6C44.5938 5.64583 44.3854 5.375 44.1562 5.1875C43.9271 4.97917 43.6875 4.83333 43.4375 4.75C43.1875 4.64583 42.9375 4.59375 42.6875 4.59375C42.4375 4.59375 42.1875 4.64583 41.9375 4.75C41.7083 4.83333 41.4792 4.97917 41.25 5.1875C41.0208 5.375 40.8125 5.64583 40.625 6C40.4375 6.33333 40.3333 6.75 40.3125 7.25V18.2812C40.1875 19.5312 39.5 20.2083 38.25 20.3125C37.6667 20.3125 37.1562 20.125 36.7188 19.75C36.3021 19.3542 36.0938 18.8646 36.0938 18.2812V7.25C36.0938 6.75 36 6.33333 35.8125 6C35.625 5.64583 35.4167 5.375 35.1875 5.1875C34.9583 4.97917 34.7188 4.83333 34.4688 4.75C34.2188 4.64583 33.9688 4.59375 33.7188 4.59375C33.4688 4.59375 33.2188 4.64583 32.9688 4.75C32.7396 4.83333 32.5104 4.97917 32.2812 5.1875C32.0521 5.375 31.8438 5.64583 31.6562 6C31.4688 6.33333 31.3646 6.75 31.3438 7.25V18.2812C31.2396 19.5312 30.5625 20.2083 29.3125 20.3125C28.7292 20.3125 28.2188 20.125 27.7812 19.75C27.3646 19.3542 27.1562 18.8646 27.1562 18.2812V7C27.1979 5.875 27.4583 4.90625 27.9375 4.09375C28.4167 3.28125 28.9792 2.63542 29.625 2.15625C30.2708 1.65625 30.9375 1.28125 31.625 1.03125C32.3333 0.78125 33.0417 0.65625 33.75 0.65625C34.4792 0.65625 35.1875 0.78125 35.875 1.03125C36.5833 1.28125 37.2604 1.64583 37.9062 2.125C38.0104 2.22917 38.125 2.33333 38.25 2.4375C38.3542 2.33333 38.4688 2.22917 38.5938 2.125C39.2396 1.64583 39.9062 1.28125 40.5938 1.03125C41.3021 0.78125 42.0104 0.65625 42.7188 0.65625ZM17.3438 1.5C18.4062 1.52083 19.3542 1.85417 20.1875 2.5C21.0208 3.14583 21.6875 3.91667 22.1875 4.8125C22.7083 5.70833 23.0938 6.65625 23.3438 7.65625C23.5938 8.65625 23.7188 9.67708 23.7188 10.7188C23.7188 12.0938 23.5 13.4479 23.0625 14.7812C22.6458 16.0938 21.9479 17.2604 20.9688 18.2812C20.0104 19.3021 18.8021 19.8542 17.3438 19.9375H6.4375C4.97917 19.875 3.76042 19.3333 2.78125 18.3125C1.80208 17.2917 1.10417 16.1146 0.6875 14.7812C0.291667 13.4479 0.09375 12.0938 0.09375 10.7188C0.09375 9.34375 0.302083 8 0.71875 6.6875C1.13542 5.35417 1.82292 4.17708 2.78125 3.15625C3.76042 2.11458 4.97917 1.5625 6.4375 1.5H17.3438ZM71.3438 1.5C71.9271 1.5 72.4167 1.70833 72.8125 2.125C73.2292 2.52083 73.4375 3.01042 73.4375 3.59375C73.4375 4.17708 73.2292 4.66667 72.8125 5.0625C72.4167 5.47917 71.9271 5.6875 71.3438 5.6875H58.8438C58.4479 5.70833 58.1146 5.80208 57.8438 5.96875C57.5938 6.11458 57.4062 6.29167 57.2812 6.5C57.1562 6.6875 57.0938 6.88542 57.0938 7.09375C57.0938 7.30208 57.1562 7.51042 57.2812 7.71875C57.4062 7.90625 57.5938 8.08333 57.8438 8.25C58.1146 8.39583 58.4479 8.47917 58.8438 8.5H67.7188C69.1771 8.54167 70.375 8.88542 71.3125 9.53125C72.2708 10.1562 72.9479 10.8854 73.3438 11.7188C73.7604 12.5312 73.9688 13.3646 73.9688 14.2188C73.9688 15.0521 73.7604 15.8854 73.3438 16.7188C72.9271 17.5312 72.25 18.2604 71.3125 18.9062C70.375 19.5312 69.1771 19.8438 67.7188 19.8438H67.5312C67.4062 19.8646 67.2812 19.875 67.1562 19.875H55.3438C54.7604 19.875 54.2604 19.6771 53.8438 19.2812C53.4479 18.8646 53.25 18.3646 53.25 17.7812C53.25 17.1979 53.4583 16.7083 53.875 16.3125C54.2708 15.8958 54.7604 15.6875 55.3438 15.6875H67.9062C68.3021 15.7083 68.625 15.6354 68.875 15.4688C69.1458 15.3021 69.3438 15.1146 69.4688 14.9062C69.5938 14.6771 69.6562 14.4479 69.6562 14.2188C69.6562 14.0729 69.5938 13.875 69.4688 13.625C69.3438 13.3542 69.1458 13.1354 68.875 12.9688C68.625 12.8021 68.3021 12.7083 67.9062 12.6875H59.0312C57.5729 12.6458 56.3646 12.3125 55.4062 11.6875C54.4688 11.0625 53.7917 10.3542 53.375 9.5625C52.9792 8.75 52.7812 7.92708 52.7812 7.09375C52.7812 6.28125 52.9896 5.47917 53.4062 4.6875C53.8229 3.875 54.5 3.15625 55.4375 2.53125C56.375 1.90625 57.5729 1.57292 59.0312 1.53125H59.2188C59.3438 1.51042 59.4688 1.5 59.5938 1.5H71.3438ZM7.40625 5.6875C6.61458 5.72917 5.95833 6.03125 5.4375 6.59375C4.91667 7.15625 4.53125 7.80208 4.28125 8.53125C4.05208 9.23958 3.9375 9.96875 3.9375 10.7188C3.9375 11.4688 4.05208 12.2083 4.28125 12.9375C4.51042 13.6667 4.88542 14.3125 5.40625 14.875C5.94792 15.4167 6.61458 15.7083 7.40625 15.75H16.2812C17.0729 15.7083 17.7292 15.4167 18.25 14.875C18.7917 14.3125 19.1771 13.6667 19.4062 12.9375C19.6354 12.2083 19.75 11.4688 19.75 10.7188C19.75 9.96875 19.625 9.23958 19.375 8.53125C19.1458 7.80208 18.7708 7.15625 18.25 6.59375C17.7292 6.03125 17.0729 5.72917 16.2812 5.6875H7.40625Z" fill="white"/>
</svg>
